<?xml version="1.0" encoding="UTF-8" standalone="no"?>
<!-- Created with Inkscape (http://www.inkscape.org/) -->

<svg
   width="100mm"
   height="95mm"
   viewBox="0 0 100 95"
   version="1.1"
   id="svg1"
   xml:space="preserve"
   inkscape:version="1.3.2 (091e20ef0f, 2023-11-25, custom)"
   sodipodi:docname="headphones.svg"
   xmlns:inkscape="http://www.inkscape.org/namespaces/inkscape"
   xmlns:sodipodi="http://sodipodi.sourceforge.net/DTD/sodipodi-0.dtd"
   xmlns="http://www.w3.org/2000/svg"
   xmlns:svg="http://www.w3.org/2000/svg"><sodipodi:namedview
     id="namedview1"
     pagecolor="#ffffff"
     bordercolor="#000000"
     borderopacity="0.25"
     inkscape:showpageshadow="2"
     inkscape:pageopacity="0.0"
     inkscape:pagecheckerboard="0"
     inkscape:deskcolor="#d1d1d1"
     inkscape:document-units="mm"
     inkscape:zoom="1.7180412"
     inkscape:cx="173.45335"
     inkscape:cy="200.22803"
     inkscape:window-width="2880"
     inkscape:window-height="1800"
     inkscape:window-x="0"
     inkscape:window-y="0"
     inkscape:window-maximized="1"
     inkscape:current-layer="layer1" /><defs
     id="defs1" /><g
     inkscape:label="Layer 1"
     inkscape:groupmode="layer"
     id="layer1"><path
       id="path1"
       style="fill:#afbea2;fill-opacity:1;stroke-width:1.4763"
       d="m 48.850973,-13.295751 c -0.173917,0.0013 -0.239886,0.01302 -0.246416,0.04196 0.101292,-0.0099 0.202365,-0.02193 0.303633,-0.03204 -0.02087,-8.72e-4 -0.03564,-0.01007 -0.05723,-0.01 z m -11.862326,0.337965 c -0.0013,0.0034 -0.0025,0.0073 -0.0039,0.01221 0.0034,-0.0034 0.0056,-0.0069 0.0077,-0.01 -0.0012,-6.03e-4 -0.0025,-0.0016 -0.0039,-0.0023 z m -0.01907,0.118248 c -3.4e-5,0.0023 -4.7e-5,0.0046 0,0.0069 1.48e-4,0.0064 0.0022,0.01274 0.0015,0.01907 -4.43e-4,0.004 -0.0098,0.0042 -0.0054,0.01071 -0.0093,0.0075 -0.0075,0.0039 0.01374,0.01296 0.01299,0.0056 0.02681,0.0093 0.04044,0.01222 -2.44e-4,-0.0085 -4.88e-4,-0.01534 -7.61e-4,-0.02365 -0.01644,-0.01281 -0.03298,-0.02546 -0.04959,-0.03814 z m 10.930823,0.994822 c 3.9e-5,0.0074 -5.1e-5,0.0125 0,0.01983 0.0018,-4.75e-4 0.0036,-2.94e-4 0.0054,-7.63e-4 -0.0016,-0.0062 -0.0036,-0.01278 -0.0054,-0.01907 z m 1.674564,19.2868647 c -4.568884,5.4e-4 -5.381461,0.05435 -7.331464,0.485966 -8.069013,1.785939 -16.68047,7.3320373 -21.842579,14.0671053 -8.662498,11.302074 -10.23862,26.184657 -4.546881,42.942855 0.620471,1.826841 0.868454,2.954222 0.984904,4.478219 l 0.155631,2.036942 2.725841,5.408196 c 1.499359,2.974658 3.562661,6.957255 4.584263,8.850399 1.745645,3.234878 1.918438,3.476538 2.873843,4.003698 1.698425,0.93712 2.183105,1.0069 2.821202,0.40738 0.706781,-0.66405 0.832416,-0.65259 1.505201,0.13657 l 0.55768,0.6538 3.355995,-0.0885 c 2.68983,-0.071 3.627802,-0.17823 4.727689,-0.54243 2.682753,-0.8883 4.38624,-2.48505 4.555273,-4.269178 0.08666,-0.914588 -0.12534,-1.429215 -3.206469,-7.783101 C 36.107521,67.119721 31.367451,57.996862 30.675651,57.406735 c -1.152084,-0.982758 -2.977813,-0.991849 -4.865774,-0.02289 -1.33053,0.682841 -3.802505,2.725545 -4.814658,3.977758 L 20.246814,62.287 20.094997,65.115069 c -0.0834,1.555153 -0.217427,2.75065 -0.297531,2.656417 -0.288799,-0.3398 -2.703616,-6.591805 -3.244612,-8.400288 -1.044183,-3.490651 -1.39321,-5.78107 -1.516644,-9.949736 -0.133501,-4.50831 0.125692,-6.877338 1.290826,-11.802057 1.415894,-5.984699 3.33021,-9.65921 7.131586,-13.688707 6.041617,-6.404201 13.822201,-9.928171 23.28522,-10.547851 2.576428,-0.168699 9.65102,0.377743 12.517657,0.96736 9.548946,1.96403 17.738189,8.459153 22.420092,17.781661 2.842822,5.660546 4.143905,13.411726 3.223252,19.202945 -0.366625,2.306168 -1.085927,5.313469 -2.009479,8.398 -0.758174,2.532229 -2.94955,8.185677 -3.172898,8.185911 -0.08653,9.3e-5 -0.157158,-1.138901 -0.157158,-2.530537 v -2.529783 l -0.949809,-1.281672 c -2.890782,-3.89854 -6.335191,-5.546803 -8.961782,-4.288258 -0.849577,0.407087 -1.025628,0.678895 -3.958687,6.113115 -1.688089,3.127582 -4.790981,9.120419 -6.895086,13.317175 -3.513498,7.007859 -3.834057,7.741288 -3.932747,8.987728 l -0.107563,1.357187 0.832323,0.80182 c 0.457614,0.44131 1.745653,1.27214 2.8624,1.84545 l 2.030076,1.04212 3.769486,0.09 3.769487,0.09 0.623289,-0.67669 c 0.528587,-0.57363 0.688603,-0.64119 1.052038,-0.444 0.235766,0.12792 0.42875,0.32508 0.42875,0.4379 0,0.34391 0.894726,0.23092 2.187997,-0.27693 1.182589,-0.46438 1.2702,-0.55432 2.354308,-2.39246 0.619385,-1.05019 2.765198,-5.209792 4.768122,-9.244052 l 3.64132,-7.335279 0.115196,-1.807311 c 0.08812,-1.385208 0.388084,-2.676067 1.283959,-5.527969 2.094962,-6.668984 2.75903,-10.07894 2.98065,-15.30758 0.147826,-3.487816 -0.0945,-6.311732 -0.889543,-10.361702 C 84.902545,29.505494 81.090026,22.755008 74.610277,16.81971 69.554156,12.188422 64.353859,9.5365627 57.338992,8.0120347 54.893978,7.4806567 54.35903,7.4415817 49.574964,7.4421487 Z" /></g></svg>
