<?xml version="1.0" encoding="UTF-8" standalone="no"?>
<!-- Created with Inkscape (http://www.inkscape.org/) -->

<svg
   width="100mm"
   height="100mm"
   viewBox="0 0 100 100"
   version="1.1"
   id="svg1"
   xml:space="preserve"
   inkscape:version="1.3.2 (091e20ef0f, 2023-11-25, custom)"
   sodipodi:docname="mouse.svg"
   xmlns:inkscape="http://www.inkscape.org/namespaces/inkscape"
   xmlns:sodipodi="http://sodipodi.sourceforge.net/DTD/sodipodi-0.dtd"
   xmlns="http://www.w3.org/2000/svg"
   xmlns:svg="http://www.w3.org/2000/svg"><sodipodi:namedview
     id="namedview1"
     pagecolor="#ffffff"
     bordercolor="#000000"
     borderopacity="0.25"
     inkscape:showpageshadow="2"
     inkscape:pageopacity="0.0"
     inkscape:pagecheckerboard="0"
     inkscape:deskcolor="#d1d1d1"
     inkscape:document-units="mm"
     inkscape:zoom="2.2195104"
     inkscape:cx="122.099"
     inkscape:cy="106.78031"
     inkscape:window-width="1277"
     inkscape:window-height="1711"
     inkscape:window-x="0"
     inkscape:window-y="0"
     inkscape:window-maximized="1"
     inkscape:current-layer="layer1" /><defs
     id="defs1" /><g
     inkscape:label="Layer 1"
     inkscape:groupmode="layer"
     id="layer1"><path
       id="path1"
       style="fill:#afbea2;fill-opacity:1;stroke-width:1.00177"
       d="m 49.469954,2.1166667 -2.854331,0.1555461 c -4.518413,0.2465266 -8.688373,1.2780736 -12.280259,3.037541 -2.550619,1.2494043 -5.961787,4.5178765 -6.976619,6.6853812 -2.010781,4.294681 -3.49769,14.557952 -4.024274,27.771434 -0.852273,21.386102 -0.19897,28.281252 3.398334,35.848457 3.699591,7.7824 9.114368,12.100447 17.426766,13.897343 1.493285,0.322806 3.410409,0.494109 5.666656,0.506429 13.856597,0.07565 23.150438,-8.025036 26.190453,-22.82858 C 77.102375,61.90332 77.240352,56.134635 76.669069,39.89886 76.22644,27.319608 74.615991,16.181974 72.634941,11.994618 71.27468,9.1194176 67.581168,5.9852539 63.807986,4.5051517 60.279428,3.1210093 55.688593,2.1987552 52.317543,2.1967652 l -1.798996,-0.00103 0.07312,4.2772586 0.07312,4.2777752 0.796557,0.103869 c 1.011042,0.131957 1.855842,0.678144 2.452422,1.585952 0.400751,0.609811 0.473934,1.420949 0.507702,5.618779 0.02171,2.698297 -0.07034,5.344156 -0.204326,5.879228 -0.292273,1.1672 -1.493187,2.2476 -2.760984,2.484603 l -0.918426,0.172082 -0.06949,11.017416 c -0.06027,9.586141 -0.120712,11.017415 -0.467252,11.017415 -0.346532,0 -0.407497,-1.431274 -0.467769,-11.017415 l -0.06897,-11.017416 -0.973916,-0.182417 c -0.56692,-0.105982 -1.330114,-0.536328 -1.825962,-1.030428 -0.84043,-0.837476 -0.85446,-0.893138 -1.04237,-4.146517 -0.104759,-1.813615 -0.12269,-4.249981 -0.03993,-5.41414 0.08275,-1.164158 0.154725,-2.31604 0.160244,-2.559534 0.01897,-0.83868 1.342773,-2.064264 2.558733,-2.369367 l 1.168904,-0.293526 V 6.3577518 Z m 0.531038,9.6040663 c -1.745388,0 -1.962767,0.06294 -2.675934,0.773597 l -0.775815,0.77308 v 5.332492 5.332491 l 0.775815,0.773079 c 0.713167,0.710658 0.930546,0.773597 2.675934,0.773597 1.745394,0 1.962241,-0.06293 2.675417,-0.773597 l 0.776332,-0.773079 V 18.599902 13.26741 l -0.776332,-0.77308 c -0.713176,-0.710656 -0.930023,-0.773597 -2.675417,-0.773597 z" /></g></svg>
